<svg width="138" height="45" viewBox="0 0 138 45" fill="none" xmlns="http://www.w3.org/2000/svg">
<g filter="url(#filter0_f_20_16)">
<path d="M14.2712 32.08C11.3367 29.1894 9.8695 25.2621 9.8695 20.2983C9.8695 15.3491 11.3367 11.4145 14.2712 8.49462C17.1911 5.60393 21.1476 4.15858 26.1406 4.15858C30.9292 4.15858 34.7835 5.38494 37.7034 7.83764C40.6087 10.2904 42.0613 13.3708 42.0613 17.0791H34.4842C34.4696 16.9039 34.4258 16.663 34.3528 16.3564C34.2798 16.0352 34.0754 15.5024 33.7396 14.7578C33.36 13.984 32.9074 13.3124 32.3819 12.7431C31.8417 12.1591 31.0314 11.6262 29.9511 11.1444C28.8415 10.6772 27.5713 10.4436 26.1406 10.4436C23.3229 10.4436 21.1403 11.3707 19.5927 13.2248C18.0452 15.079 17.2714 17.4368 17.2714 20.2983C17.2714 23.1598 18.0525 25.5249 19.6146 27.3936C21.1622 29.2478 23.3375 30.1748 26.1406 30.1748C27.5129 30.1748 28.7539 29.9558 29.8635 29.5178C30.973 29.0799 31.8198 28.5178 32.4038 27.8316C33.5717 26.4593 34.2214 25.2475 34.3528 24.1963L34.4842 23.5394H42.0613C42.0613 27.2622 40.6087 30.3354 37.7034 32.7589C34.7835 35.2116 30.9292 36.438 26.1406 36.438C21.133 36.438 17.1765 34.9853 14.2712 32.08ZM71.8135 13.619V14.4293H64.4116V13.619C64.4116 12.4365 63.9079 11.524 62.9006 10.8816C61.9078 10.2247 60.4625 9.89617 58.5645 9.89617C56.8418 9.89617 55.4476 10.1882 54.3818 10.7721C53.2868 11.3561 52.7394 12.2175 52.7394 13.3562C52.7394 14.8746 54.0898 15.933 56.7907 16.5316C57.3601 16.663 58.6156 16.9039 60.5574 17.2543C62.4991 17.5901 64.0174 17.904 65.1124 18.196C66.5431 18.5901 67.8644 19.0938 69.0761 19.707C70.2733 20.3202 71.2442 21.2253 71.9887 22.4225C72.7333 23.6197 73.1056 25.0796 73.1056 26.8023C73.1056 29.839 71.8427 32.2041 69.317 33.8977C66.7913 35.5912 63.3021 36.438 58.8492 36.438C54.2358 36.438 50.6954 35.5766 48.2281 33.8539C45.7608 32.1311 44.5272 29.6346 44.5272 26.3644V25.2256H51.9291V26.4958C51.9291 27.9849 52.5058 29.058 53.6591 29.7149C54.8125 30.3719 56.5425 30.7004 58.8492 30.7004C63.4189 30.7004 65.7037 29.4156 65.7037 26.8461C65.7037 25.4738 64.3605 24.4883 61.6742 23.8897C61.5574 23.8606 60.426 23.6489 58.2798 23.2547C56.1483 22.8459 54.5059 22.4663 53.3525 22.1159C51.951 21.6925 50.6297 21.1524 49.3888 20.4954C48.2062 19.8676 47.2354 18.9405 46.4762 17.7142C45.717 16.517 45.3374 15.079 45.3374 13.4C45.3374 10.5531 46.5054 8.29753 48.8413 6.63319C51.1918 4.98345 54.4329 4.15858 58.5645 4.15858C62.7838 4.15858 66.0468 4.96885 68.3535 6.58939C70.6602 8.23913 71.8135 10.5823 71.8135 13.619ZM85.7765 4.59656H94.8646L107.522 36H100.077L97.8648 30.569H82.7106L80.5645 36H73.1187L85.7765 4.59656ZM85.0538 24.8314H95.5435L90.5286 11.6043H90.0687L85.0538 24.8314ZM113.492 10.794H102.783V4.59656H131.296V10.794H120.587V36H113.492V10.794Z" fill="#FCDE00"/>
</g>
<path d="M29.5201 13.619V14.4293H22.1182V13.619C22.1182 12.4365 21.6145 11.524 20.6071 10.8816C19.6144 10.2247 18.169 9.89617 16.2711 9.89617C14.5484 9.89617 13.1541 10.1882 12.0884 10.7721C10.9934 11.3561 10.4459 12.2175 10.4459 13.3562C10.4459 14.8746 11.7964 15.933 14.4973 16.5316C15.0666 16.663 16.3222 16.9039 18.2639 17.2543C20.2057 17.5901 21.724 17.904 22.819 18.196C24.2497 18.5901 25.571 19.0938 26.7827 19.707C27.9799 20.3202 28.9507 21.2253 29.6953 22.4225C30.4399 23.6197 30.8122 25.0796 30.8122 26.8023C30.8122 29.839 29.5493 32.2041 27.0236 33.8977C24.4979 35.5912 21.0086 36.438 16.5558 36.438C11.9424 36.438 8.40199 35.5766 5.93468 33.8539C3.46737 32.1311 2.23372 29.6346 2.23372 26.3644V25.2256H9.63564V26.4958C9.63564 27.9849 10.2123 29.058 11.3657 29.7149C12.519 30.3719 14.2491 30.7004 16.5558 30.7004C21.1254 30.7004 23.4102 29.4156 23.4102 26.8461C23.4102 25.4738 22.0671 24.4883 19.3808 23.8897C19.264 23.8606 18.1325 23.6489 15.9864 23.2547C13.8549 22.8459 12.2124 22.4663 11.0591 22.1159C9.65754 21.6925 8.33629 21.1524 7.09534 20.4954C5.91278 19.8676 4.94192 18.9405 4.18274 17.7142C3.42357 16.517 3.04399 15.079 3.04399 13.4C3.04399 10.5531 4.21194 8.29753 6.54786 6.63319C8.89837 4.98345 12.1394 4.15858 16.2711 4.15858C20.4903 4.15858 23.7533 4.96885 26.06 6.58939C28.3667 8.23913 29.5201 10.5823 29.5201 13.619ZM50.7755 20.1669H50.5565L46.1547 36H37.5045L31.5042 13.5752H38.2272L41.8625 29.8901H42.1253L46.6584 13.5752H54.6954L59.2066 29.8901H59.4913L63.1266 13.5752H69.8496L63.8274 36H55.1772L50.7755 20.1669ZM71.3957 13.5752H77.856V36H71.3957V13.5752ZM72.0089 9.26109C71.3665 8.73551 71.0453 8.02014 71.0453 7.11497C71.0453 6.239 71.3665 5.52363 72.0089 4.96885C72.6367 4.42867 73.5127 4.15858 74.6368 4.15858C75.761 4.15858 76.6369 4.42867 77.2647 4.96885C77.9071 5.52363 78.2283 6.239 78.2283 7.11497C78.2283 8.02014 77.9071 8.73551 77.2647 9.26109C76.6369 9.80127 75.761 10.0714 74.6368 10.0714C73.5127 10.0714 72.6367 9.80127 72.0089 9.26109ZM104.367 16.2688C106.44 18.342 107.477 21.1815 107.477 24.7876C107.477 28.3937 106.44 31.2333 104.367 33.3064C102.279 35.3941 99.6953 36.438 96.6148 36.438C94.9213 36.438 93.4176 36.1679 92.1036 35.6277C90.7605 35.1021 89.8407 34.5693 89.3443 34.0291L88.6435 33.2626H88.3588V44.9787H81.8986V13.5752H88.3588V17.2543H88.6873C88.8333 16.9331 89.2056 16.4513 89.8042 15.8089C90.2714 15.3418 90.7751 14.9257 91.3152 14.5607C91.9138 14.1665 92.6876 13.8307 93.6365 13.5533C94.6001 13.2759 95.5929 13.1372 96.6148 13.1372C99.6953 13.1372 102.279 14.1811 104.367 16.2688ZM99.1551 29.0361C100.279 27.9411 100.841 26.525 100.841 24.7876C100.841 23.0649 100.279 21.6414 99.1551 20.5173C98.031 19.4223 96.5126 18.8748 94.6001 18.8748C92.6876 18.8748 91.1692 19.4223 90.0451 20.5173C88.9209 21.6414 88.3588 23.0649 88.3588 24.7876C88.3588 26.5687 88.9282 27.9922 90.067 29.058C91.2057 30.1529 92.7168 30.7004 94.6001 30.7004C96.5272 30.7004 98.0456 30.1456 99.1551 29.0361ZM135.258 24.7876L135.127 26.4958H116.512C116.512 27.8389 117.045 28.9923 118.111 29.9558C119.148 30.934 120.644 31.4231 122.6 31.4231C123.71 31.4231 124.703 31.2333 125.579 30.8537C126.411 30.4741 126.958 30.0945 127.221 29.7149L127.637 29.1894H134.711C134.681 29.3937 134.616 29.6492 134.514 29.9558C134.397 30.3208 134.076 30.8975 133.55 31.6859C132.995 32.5472 132.331 33.2918 131.557 33.9196C130.71 34.5766 129.521 35.1532 127.988 35.6496C126.382 36.1752 124.586 36.438 122.6 36.438C118.775 36.438 115.673 35.4087 113.293 33.3502C110.914 31.2917 109.724 28.4375 109.724 24.7876C109.724 21.1378 110.906 18.2836 113.271 16.225C115.636 14.1665 118.717 13.1372 122.513 13.1372C126.279 13.1372 129.345 14.1665 131.71 16.225C134.076 18.2836 135.258 21.1378 135.258 24.7876ZM126.871 19.5318C125.834 18.612 124.382 18.1522 122.513 18.1522C120.644 18.1522 119.199 18.6193 118.177 19.5537C117.126 20.5027 116.6 21.5027 116.6 22.5539H128.382C128.382 21.4735 127.878 20.4662 126.871 19.5318Z" fill="#404040"/>
<defs>
<filter id="filter0_f_20_16" x="6.28154" y="0.570606" width="128.603" height="39.4553" filterUnits="userSpaceOnUse" color-interpolation-filters="sRGB">
<feFlood flood-opacity="0" result="BackgroundImageFix"/>
<feBlend mode="normal" in="SourceGraphic" in2="BackgroundImageFix" result="shape"/>
<feGaussianBlur stdDeviation="1.79398" result="effect1_foregroundBlur_20_16"/>
</filter>
</defs>
</svg>
